<svg width="131" height="32" viewBox="0 0 131 32" fill="none" xmlns="http://www.w3.org/2000/svg">
<path d="M81.4873 6.61277H84.2607V8.99132H84.3323C85.0659 8.128 85.9606 7.42324 86.9805 6.92991C88.0183 6.43658 89.1455 6.18991 90.2907 6.18991C91.5074 6.17229 92.7242 6.40134 93.8514 6.84181C94.8892 7.24705 95.8196 7.86371 96.6069 8.63895C97.3763 9.4318 97.9847 10.348 98.3783 11.3699C99.2372 13.5723 99.2372 16.0037 98.3783 18.2237C97.9847 19.2279 97.3763 20.1617 96.6248 20.9546C95.8733 21.7298 94.9787 22.3289 93.9767 22.7517C92.9389 23.1922 91.8295 23.4036 90.7201 23.4036C89.3424 23.4389 88.0004 23.1041 86.8016 22.4346C85.6743 21.8003 84.8512 21.0074 84.3323 20.0736H84.2607V30.9445H81.4873V6.61277ZM84.2607 14.788C84.2428 15.5984 84.386 16.4089 84.6723 17.1841C85.1912 18.6289 86.3005 19.7917 87.732 20.3908C89.2887 21.0251 91.0422 21.0251 92.5989 20.3908C94.0125 19.7741 95.1218 18.6113 95.6407 17.1841C96.1775 15.6337 96.1775 13.9422 95.6407 12.3918C95.1218 10.947 94.0125 9.78418 92.5989 9.18513C91.0422 8.55085 89.2887 8.55085 87.732 9.18513C86.3005 9.78418 85.2091 10.9646 84.6723 12.3918C84.386 13.1494 84.2607 13.9599 84.2607 14.788Z" fill="white"/>
<path d="M122.91 27.3198C122.622 28.025 122.334 28.6597 122.045 29.2239C121.757 29.7705 121.397 30.2642 120.964 30.6873C120.532 31.0928 120.027 31.4278 119.469 31.6394C118.784 31.8686 118.063 31.992 117.343 31.9744C116.928 31.9744 116.496 31.9567 116.082 31.9038C115.649 31.8509 115.235 31.7452 114.856 31.5512L115.217 29.171C115.505 29.2944 115.811 29.365 116.118 29.4002C116.478 29.4355 116.838 29.4531 117.199 29.4531C118.1 29.4531 118.766 29.2063 119.199 28.7126C119.685 28.1308 120.063 27.4608 120.316 26.7556L121.433 23.6878L114.496 7.22046H117.739L122.928 20.0558H123L127.973 7.22046H131L122.91 27.3198Z" fill="white"/>
<path d="M118.47 20.8855H114.766C114.605 20.8855 114.48 20.7597 114.48 20.598V13.2138C114.48 10.8423 113.943 9.06359 112.851 7.91374C111.759 6.74592 109.988 6.18896 107.536 6.18896H96.959C97.3885 6.51236 97.8001 6.85372 98.1759 7.24898C98.5876 7.68017 98.9813 8.1473 99.3034 8.65036H108.431C109.254 8.77612 110.023 9.11748 110.65 9.65648C111.366 10.2853 111.723 11.1836 111.723 12.4053V12.9084H110.65C109.63 12.9084 108.52 12.9623 107.303 13.0521C106.14 13.142 104.994 13.3755 103.903 13.7708C102.901 14.1301 101.988 14.723 101.254 15.5135C100.538 16.304 100.18 17.382 100.18 18.7654C100.162 19.5021 100.341 20.2387 100.681 20.9034C101.004 21.5143 101.451 22.0353 102.006 22.4485C102.596 22.8797 103.258 23.2031 103.956 23.4008C104.744 23.6164 105.549 23.7242 106.355 23.7242C107.643 23.7242 108.717 23.4547 109.63 22.8977C110.471 22.4126 111.187 21.7299 111.723 20.9214C111.885 22.5024 113.209 23.7062 114.784 23.7062H119.652L118.47 20.8855ZM110.435 19.8434C110.023 20.3105 109.504 20.6699 108.932 20.9214C108.269 21.2089 107.554 21.3526 106.82 21.3346C105.782 21.3346 104.905 21.119 104.207 20.6699C103.509 20.2387 103.151 19.4841 103.169 18.442C103.169 17.3102 103.688 16.4837 104.726 15.9806C105.764 15.4776 107.178 15.2261 108.95 15.2261H111.723V16.2861C111.706 16.9508 111.58 17.5976 111.366 18.2264C111.169 18.8373 110.847 19.3763 110.435 19.8434Z" fill="white"/>
<path d="M5.68874 18.4053C5.96575 18.9404 6.37203 19.4041 6.87064 19.7429C7.38772 20.0996 7.97866 20.3671 8.60655 20.5098C9.27136 20.6703 9.97311 20.7595 10.6749 20.7595C11.1919 20.7595 11.709 20.7238 12.2261 20.6525C12.7617 20.5811 13.2787 20.4206 13.7773 20.2066C14.239 19.9926 14.6638 19.6894 14.9777 19.2971C15.3101 18.869 15.4763 18.3518 15.4579 17.8168C15.4763 17.2282 15.2547 16.6754 14.83 16.2652C14.3498 15.8371 13.7773 15.4983 13.1679 15.2664C12.4108 14.9811 11.6352 14.7492 10.8411 14.5709C9.97312 14.3747 9.0867 14.1429 8.20028 13.911C7.29539 13.697 6.3905 13.4116 5.52254 13.0906C4.69152 12.7874 3.89743 12.3594 3.17721 11.8422C1.66291 10.7364 0.813422 9.00648 0.868823 7.16952C0.831889 6.06377 1.12736 4.97586 1.68137 3.99495C2.21692 3.10322 2.93714 2.33634 3.78663 1.74779C4.67305 1.14142 5.68874 0.69555 6.74137 0.428031C7.81246 0.142677 8.92049 0 10.0285 0C11.2658 0 12.5031 0.142677 13.7219 0.410197C14.8484 0.659881 15.9195 1.12358 16.8614 1.74779C17.7662 2.35417 18.5234 3.17456 19.0405 4.1198C19.576 5.08287 19.8346 6.24212 19.8346 7.61538H14.6084C14.5899 7.009 14.4237 6.40263 14.1467 5.84975C13.9066 5.40389 13.5373 5.02936 13.0941 4.76184C12.6324 4.49432 12.1338 4.29814 11.5982 4.19113C10.9888 4.08413 10.3794 4.01279 9.75151 4.03062C9.3083 4.03062 8.88356 4.08413 8.44035 4.15547C8.0156 4.24464 7.62779 4.40515 7.25845 4.61917C6.90757 4.83318 6.61209 5.11854 6.39049 5.43956C6.15042 5.81409 6.02115 6.25995 6.03962 6.70582C6.02115 7.09818 6.11349 7.49054 6.31663 7.8294C6.5013 8.11475 6.85217 8.38227 7.38772 8.63196C8.10794 8.93514 8.86508 9.18483 9.62224 9.36317C10.5641 9.59502 11.8198 9.91605 13.3526 10.2906C13.8143 10.3797 14.4422 10.5403 15.2547 10.7721C16.1227 11.0218 16.9352 11.3963 17.6739 11.8779C18.5049 12.4129 19.2252 13.1084 19.7607 13.9288C20.3516 14.7849 20.6286 15.8728 20.6286 17.1926C20.6471 18.227 20.407 19.2614 19.9823 20.2066C19.5391 21.1519 18.8743 21.9722 18.0433 22.6143C17.1014 23.3277 16.0119 23.8627 14.8484 24.1837C13.408 24.5761 11.9306 24.7723 10.4348 24.7544C9.10516 24.7544 7.794 24.5939 6.5013 24.2729C5.28247 23.9876 4.15597 23.4704 3.14028 22.757C2.16152 22.0793 1.36743 21.1697 0.831887 20.1353C0.259405 19.083 -0.0176015 17.8168 0.000865647 16.3543H5.2086C5.22707 17.0856 5.3748 17.7811 5.68874 18.4053Z" fill="#C4AD6C"/>
<path d="M22.1904 12.1024C22.2608 10.9638 22.5247 10.0272 23.0173 9.27423C23.4923 8.53964 24.108 7.91524 24.8469 7.45613C25.621 6.97865 26.4655 6.66645 27.3451 6.4828C28.26 6.29915 29.21 6.18896 30.1424 6.18896C31.0045 6.18896 31.8665 6.24406 32.7286 6.37261C33.5555 6.4828 34.3647 6.7399 35.1212 7.1072C35.825 7.45613 36.4231 7.97034 36.8805 8.63147C37.338 9.27423 37.5667 10.1374 37.5667 11.2025V20.3849C37.5667 21.1562 37.6019 21.9091 37.7074 22.6804C37.7954 23.415 37.9537 23.9476 38.1648 24.3149H33.4499C33.3619 24.0394 33.2916 23.7639 33.2388 23.4701C33.186 23.1763 33.1508 22.9008 33.1156 22.607C32.3943 23.3967 31.4971 23.966 30.4943 24.2782C29.4915 24.5904 28.4535 24.7556 27.4155 24.7556C26.659 24.7556 25.8849 24.6638 25.1636 24.4434C24.4951 24.2598 23.8793 23.9292 23.3339 23.4885C22.8061 23.0477 22.3839 22.4968 22.1024 21.854C21.7857 21.1194 21.645 20.3114 21.6626 19.5033C21.6626 18.4933 21.8385 17.6669 22.1728 17.0241C22.4895 16.3997 22.9293 15.8671 23.4747 15.4631C24.0377 15.0591 24.6534 14.7653 25.3044 14.6C25.9905 14.4163 26.6766 14.2511 27.3803 14.1409C28.084 14.0307 28.7702 13.9389 29.4387 13.8654C30.0369 13.8103 30.6526 13.7001 31.2332 13.5532C31.6906 13.443 32.1128 13.241 32.4823 12.9472C32.799 12.6717 32.9573 12.2309 32.9045 11.8086C32.9221 11.3862 32.8342 10.9454 32.6582 10.5598C32.4999 10.2659 32.2712 10.0088 32.0073 9.84353C31.7082 9.65989 31.3915 9.5497 31.0573 9.4946C30.6702 9.43951 30.2832 9.40278 29.8961 9.40278C28.9813 9.40278 28.26 9.60479 27.7322 10.0088C27.2044 10.4128 26.9053 11.0923 26.8174 12.0657L22.1904 12.1024ZM32.9221 15.6835C32.711 15.8855 32.4647 16.0141 32.1832 16.1059C31.8665 16.2161 31.5499 16.3079 31.2332 16.363C30.8989 16.4364 30.5471 16.4915 30.1776 16.5283C29.8082 16.565 29.4387 16.6385 29.0692 16.6936C28.7174 16.767 28.3831 16.8588 28.0313 16.969C27.7146 17.0792 27.4155 17.2261 27.1516 17.4281C26.9053 17.6302 26.6942 17.8689 26.5535 18.1627C26.3951 18.5117 26.3071 18.8973 26.3247 19.283C26.3071 19.6686 26.3951 20.0359 26.5535 20.3849C26.6942 20.6787 26.9053 20.9174 27.1692 21.0827C27.4507 21.2664 27.7674 21.3949 28.084 21.45C28.4359 21.5235 28.8053 21.5602 29.1572 21.5602C30.072 21.5602 30.7758 21.3949 31.286 21.0827C31.7434 20.8072 32.1304 20.4216 32.3943 19.9441C32.623 19.5217 32.7814 19.0626 32.8342 18.5851C32.8869 18.2178 32.9045 17.8505 32.9221 17.5016V15.6835Z" fill="#C4AD6C"/>
<path d="M39.1943 9.69314V6.53349H42.0858V5.21252C42.0858 3.67732 42.5799 2.42775 43.5499 1.46379C44.5198 0.49983 46.0021 0 47.9786 0C48.3995 0 48.8387 0.0178503 49.2779 0.0535524C49.7171 0.0892546 50.138 0.107106 50.5406 0.142808V3.65947C49.955 3.58807 49.3694 3.55237 48.7655 3.55237C48.1067 3.55237 47.6309 3.69517 47.3564 3.99864C47.0819 4.30211 46.9354 4.80194 46.9354 5.51598V6.55135H50.2661V9.71099H46.9354V23.7241H42.0858V9.71099H39.1943V9.69314Z" fill="#C4AD6C"/>
<path d="M55.7578 6.64995V9.82366H55.8244C56.0244 9.29175 56.3077 8.79531 56.6576 8.35205C57.0076 7.9088 57.4075 7.51873 57.8574 7.19959C58.3073 6.88045 58.8072 6.63222 59.3071 6.45492C59.8237 6.27762 60.3736 6.18896 60.9235 6.18896C61.2568 6.18896 61.5734 6.24216 61.89 6.34854V10.7102C61.69 10.6747 61.4401 10.6215 61.1401 10.6038C60.8569 10.5683 60.5902 10.5506 60.307 10.5506C59.6071 10.5329 58.9072 10.6747 58.2573 10.9939C57.7241 11.2598 57.2575 11.6676 56.9076 12.1641C56.5576 12.6782 56.3077 13.2633 56.1744 13.9016C56.0244 14.6108 55.9577 15.32 55.9577 16.047V23.7242H51.5752V6.66768H55.7578V6.64995Z" fill="#C4AD6C"/>
<path d="M63.4672 12.1024C63.5375 10.9638 63.8011 10.0272 64.2932 9.27423C64.7677 8.53964 65.3828 7.91524 66.1209 7.45613C66.8941 6.99701 67.7377 6.66645 68.6164 6.4828C69.5303 6.29915 70.4793 6.18896 71.4107 6.18896C72.2719 6.18896 73.133 6.24406 73.9942 6.37261C74.8201 6.4828 75.6286 6.7399 76.3843 7.1072C77.0872 7.45613 77.6848 7.97034 78.1417 8.63147C78.5986 9.27423 78.8271 10.1374 78.8271 11.2025V20.3849C78.8271 21.1562 78.8622 21.9091 78.9677 22.6804C79.0556 23.415 79.2137 23.9476 79.4246 24.3149H74.6971C74.6093 24.0394 74.539 23.7639 74.4862 23.4701C74.4335 23.1763 74.3984 22.9008 74.3632 22.607C73.6427 23.3967 72.7464 23.966 71.7446 24.2782C70.7429 24.5904 69.706 24.7556 68.6691 24.7556C67.9134 24.7556 67.1402 24.6638 66.4196 24.4434C65.7518 24.2598 65.1367 23.9292 64.5919 23.4885C64.0647 23.0477 63.6429 22.4968 63.3617 21.854C63.0454 21.1194 62.9048 20.3114 62.9224 19.5033C62.9224 18.4933 63.0981 17.6669 63.432 17.0241C63.7484 16.3997 64.1877 15.8671 64.7325 15.4631C65.2949 15.0591 65.91 14.7653 66.5602 14.6C67.2456 14.4163 67.931 14.2511 68.634 14.1409C69.337 14.0307 70.0224 13.9389 70.6902 13.8654C71.2877 13.8103 71.9028 13.7001 72.4828 13.5532C72.9397 13.443 73.3615 13.241 73.7305 12.9472C74.0469 12.6717 74.2051 12.2309 74.1523 11.8086C74.1699 11.3862 74.082 10.9454 73.9063 10.5598C73.7481 10.2659 73.5197 10.0088 73.256 9.84353C72.9573 9.65989 72.6409 9.5497 72.307 9.4946C71.9204 9.43951 71.5338 9.40278 71.1471 9.40278C70.2333 9.40278 69.5127 9.60479 68.9855 10.0088C68.4583 10.4128 68.1595 11.0923 68.0716 12.0657L63.4672 12.1024ZM74.1875 15.6835C73.9766 15.8855 73.7305 16.0141 73.4494 16.1059C73.133 16.2161 72.8167 16.3079 72.5003 16.363C72.1664 16.4364 71.8149 16.4915 71.4459 16.5283C71.0768 16.565 70.7078 16.6385 70.3387 16.6936C69.9872 16.767 69.6533 16.8588 69.3194 16.969C69.0031 17.0792 68.7043 17.2261 68.4407 17.4281C68.1946 17.6302 67.9838 17.8689 67.8432 18.1627C67.685 18.5117 67.5971 18.8973 67.6147 19.283C67.5971 19.6686 67.685 20.0359 67.8432 20.3849C67.9838 20.6787 68.1946 20.9174 68.4583 21.0827C68.7394 21.2664 69.0558 21.3949 69.3721 21.45C69.7236 21.5235 70.0927 21.5602 70.4442 21.5602C71.358 21.5602 72.061 21.3949 72.5706 21.0827C73.0276 20.8072 73.4142 20.4216 73.6778 19.9441C73.9063 19.5217 74.0644 19.0626 74.1172 18.5851C74.1699 18.2178 74.1875 17.8505 74.205 17.5016L74.1875 15.6835Z" fill="#C4AD6C"/>
</svg>
