<svg width="131" height="32" viewBox="0 0 131 32" fill="none" xmlns="http://www.w3.org/2000/svg">
<path d="M81.4883 6.61277H84.2617V8.99132H84.3333C85.0669 8.128 85.9616 7.42324 86.9815 6.92991C88.0193 6.43658 89.1465 6.18991 90.2917 6.18991C91.5084 6.17229 92.7251 6.40134 93.8524 6.84181C94.8902 7.24705 95.8206 7.86371 96.6079 8.63895C97.3773 9.4318 97.9857 10.348 98.3793 11.3699C99.2382 13.5723 99.2382 16.0037 98.3793 18.2237C97.9857 19.2279 97.3773 20.1617 96.6258 20.9546C95.8743 21.7298 94.9796 22.3289 93.9776 22.7517C92.9398 23.1922 91.8305 23.4036 90.7211 23.4036C89.3433 23.4389 88.0014 23.1041 86.8025 22.4346C85.6753 21.8003 84.8522 21.0074 84.3333 20.0736H84.2617V30.9445H81.4883V6.61277ZM84.2617 14.788C84.2438 15.5984 84.387 16.4089 84.6733 17.1841C85.1921 18.6289 86.3015 19.7917 87.733 20.3908C89.2897 21.0251 91.0432 21.0251 92.5999 20.3908C94.0134 19.7741 95.1228 18.6113 95.6417 17.1841C96.1785 15.6337 96.1785 13.9422 95.6417 12.3918C95.1228 10.947 94.0134 9.78418 92.5999 9.18513C91.0432 8.55085 89.2897 8.55085 87.733 9.18513C86.3015 9.78418 85.21 10.9646 84.6733 12.3918C84.387 13.1494 84.2617 13.9599 84.2617 14.788Z" fill="#1E2446"/>
<path d="M122.91 27.3198C122.622 28.025 122.334 28.6597 122.045 29.2239C121.757 29.7705 121.397 30.2642 120.964 30.6873C120.532 31.0928 120.027 31.4278 119.469 31.6394C118.784 31.8686 118.063 31.992 117.343 31.9744C116.928 31.9744 116.496 31.9567 116.082 31.9038C115.649 31.8509 115.235 31.7452 114.856 31.5512L115.217 29.171C115.505 29.2944 115.811 29.365 116.118 29.4002C116.478 29.4355 116.838 29.4531 117.199 29.4531C118.1 29.4531 118.766 29.2063 119.199 28.7126C119.685 28.1308 120.063 27.4608 120.316 26.7556L121.433 23.6878L114.496 7.22046H117.739L122.928 20.0558H123L127.973 7.22046H131L122.91 27.3198Z" fill="#1E2446"/>
<path d="M118.47 20.8855H114.766C114.605 20.8855 114.48 20.7597 114.48 20.598V13.2138C114.48 10.8423 113.943 9.06359 112.851 7.91374C111.759 6.74592 109.988 6.18896 107.536 6.18896H96.959C97.3885 6.51236 97.8001 6.85372 98.1759 7.24898C98.5876 7.68017 98.9813 8.1473 99.3034 8.65036H108.431C109.254 8.77612 110.023 9.11748 110.65 9.65648C111.366 10.2853 111.723 11.1836 111.723 12.4053V12.9084H110.65C109.63 12.9084 108.52 12.9623 107.303 13.0521C106.14 13.142 104.994 13.3755 103.903 13.7708C102.901 14.1301 101.988 14.723 101.254 15.5135C100.538 16.304 100.18 17.382 100.18 18.7654C100.162 19.5021 100.341 20.2387 100.681 20.9034C101.004 21.5143 101.451 22.0353 102.006 22.4485C102.596 22.8797 103.258 23.2031 103.956 23.4008C104.744 23.6164 105.549 23.7242 106.355 23.7242C107.643 23.7242 108.717 23.4547 109.63 22.8977C110.471 22.4126 111.187 21.7299 111.723 20.9214C111.885 22.5024 113.209 23.7062 114.784 23.7062H119.652L118.47 20.8855ZM110.435 19.8434C110.023 20.3105 109.504 20.6699 108.932 20.9214C108.269 21.2089 107.554 21.3526 106.82 21.3346C105.782 21.3346 104.905 21.119 104.207 20.6699C103.509 20.2387 103.151 19.4841 103.169 18.442C103.169 17.3102 103.688 16.4837 104.726 15.9806C105.764 15.4776 107.178 15.2261 108.95 15.2261H111.723V16.2861C111.706 16.9508 111.58 17.5976 111.366 18.2264C111.169 18.8373 110.847 19.3763 110.435 19.8434Z" fill="#1E2446"/>
<path d="M5.68874 18.4053C5.96575 18.9404 6.37203 19.4041 6.87064 19.7429C7.38772 20.0996 7.97866 20.3671 8.60655 20.5098C9.27136 20.6703 9.97311 20.7595 10.6749 20.7595C11.1919 20.7595 11.709 20.7238 12.2261 20.6525C12.7617 20.5811 13.2787 20.4206 13.7773 20.2066C14.239 19.9926 14.6638 19.6894 14.9777 19.2971C15.3101 18.869 15.4763 18.3518 15.4579 17.8168C15.4763 17.2282 15.2547 16.6754 14.83 16.2652C14.3498 15.8371 13.7773 15.4983 13.1679 15.2664C12.4108 14.9811 11.6352 14.7492 10.8411 14.5709C9.97312 14.3747 9.0867 14.1429 8.20028 13.911C7.29539 13.697 6.3905 13.4116 5.52254 13.0906C4.69152 12.7874 3.89743 12.3594 3.17721 11.8422C1.66291 10.7364 0.813422 9.00648 0.868823 7.16952C0.831889 6.06377 1.12736 4.97586 1.68137 3.99495C2.21692 3.10322 2.93714 2.33634 3.78663 1.74779C4.67305 1.14142 5.68874 0.69555 6.74137 0.428031C7.81246 0.142677 8.92049 0 10.0285 0C11.2658 0 12.5031 0.142677 13.7219 0.410197C14.8484 0.659881 15.9195 1.12358 16.8614 1.74779C17.7662 2.35417 18.5234 3.17456 19.0405 4.1198C19.576 5.08287 19.8346 6.24212 19.8346 7.61538H14.6084C14.5899 7.009 14.4237 6.40263 14.1467 5.84975C13.9066 5.40389 13.5373 5.02936 13.0941 4.76184C12.6324 4.49432 12.1338 4.29814 11.5982 4.19113C10.9888 4.08413 10.3794 4.01279 9.75151 4.03062C9.3083 4.03062 8.88356 4.08413 8.44035 4.15547C8.0156 4.24464 7.62779 4.40515 7.25845 4.61917C6.90757 4.83318 6.61209 5.11854 6.39049 5.43956C6.15042 5.81409 6.02115 6.25995 6.03962 6.70582C6.02115 7.09818 6.11349 7.49054 6.31663 7.8294C6.5013 8.11475 6.85217 8.38227 7.38772 8.63196C8.10794 8.93514 8.86508 9.18483 9.62224 9.36317C10.5641 9.59502 11.8198 9.91605 13.3526 10.2906C13.8143 10.3797 14.4422 10.5403 15.2547 10.7721C16.1227 11.0218 16.9352 11.3963 17.6739 11.8779C18.5049 12.4129 19.2252 13.1084 19.7607 13.9288C20.3516 14.7849 20.6286 15.8728 20.6286 17.1926C20.6471 18.227 20.407 19.2614 19.9823 20.2066C19.5391 21.1519 18.8743 21.9722 18.0433 22.6143C17.1014 23.3277 16.0119 23.8627 14.8484 24.1837C13.408 24.5761 11.9306 24.7723 10.4348 24.7544C9.10516 24.7544 7.794 24.5939 6.5013 24.2729C5.28247 23.9876 4.15597 23.4704 3.14028 22.757C2.16152 22.0793 1.36743 21.1697 0.831887 20.1353C0.259405 19.083 -0.0176015 17.8168 0.000865647 16.3543H5.2086C5.22707 17.0856 5.3748 17.7811 5.68874 18.4053Z" fill="#C4AD6C"/>
<path d="M22.1914 12.1024C22.2617 10.9638 22.5256 10.0272 23.0182 9.27423C23.4933 8.53964 24.109 7.91524 24.8479 7.45613C25.622 6.97865 26.4665 6.66645 27.3461 6.4828C28.261 6.29915 29.211 6.18896 30.1434 6.18896C31.0055 6.18896 31.8675 6.24406 32.7296 6.37261C33.5564 6.4828 34.3657 6.7399 35.1222 7.1072C35.8259 7.45613 36.4241 7.97034 36.8815 8.63147C37.3389 9.27423 37.5676 10.1374 37.5676 11.2025V20.3849C37.5676 21.1562 37.6028 21.9091 37.7084 22.6804C37.7964 23.415 37.9547 23.9476 38.1658 24.3149H33.4509C33.3629 24.0394 33.2926 23.7639 33.2398 23.4701C33.187 23.1763 33.1518 22.9008 33.1166 22.607C32.3953 23.3967 31.4981 23.966 30.4953 24.2782C29.4925 24.5904 28.4545 24.7556 27.4165 24.7556C26.66 24.7556 25.8859 24.6638 25.1646 24.4434C24.496 24.2598 23.8803 23.9292 23.3349 23.4885C22.8071 23.0477 22.3849 22.4968 22.1034 21.854C21.7867 21.1194 21.646 20.3114 21.6636 19.5033C21.6636 18.4933 21.8395 17.6669 22.1738 17.0241C22.4904 16.3997 22.9303 15.8671 23.4757 15.4631C24.0386 15.0591 24.6544 14.7653 25.3053 14.6C25.9915 14.4163 26.6776 14.2511 27.3813 14.1409C28.085 14.0307 28.7712 13.9389 29.4397 13.8654C30.0379 13.8103 30.6536 13.7001 31.2342 13.5532C31.6916 13.443 32.1138 13.241 32.4833 12.9472C32.7999 12.6717 32.9583 12.2309 32.9055 11.8086C32.9231 11.3862 32.8351 10.9454 32.6592 10.5598C32.5009 10.2659 32.2722 10.0088 32.0083 9.84353C31.7092 9.65989 31.3925 9.5497 31.0582 9.4946C30.6712 9.43951 30.2842 9.40278 29.8971 9.40278C28.9823 9.40278 28.2609 9.60479 27.7332 10.0088C27.2054 10.4128 26.9063 11.0923 26.8183 12.0657L22.1914 12.1024ZM32.9231 15.6835C32.712 15.8855 32.4657 16.0141 32.1842 16.1059C31.8675 16.2161 31.5508 16.3079 31.2342 16.363C30.8999 16.4364 30.548 16.4915 30.1786 16.5283C29.8091 16.565 29.4397 16.6385 29.0702 16.6936C28.7184 16.767 28.3841 16.8588 28.0323 16.969C27.7156 17.0792 27.4165 17.2261 27.1526 17.4281C26.9063 17.6302 26.6952 17.8689 26.5544 18.1627C26.3961 18.5117 26.3081 18.8973 26.3257 19.283C26.3081 19.6686 26.3961 20.0359 26.5544 20.3849C26.6952 20.6787 26.9063 20.9174 27.1702 21.0827C27.4517 21.2664 27.7683 21.3949 28.085 21.45C28.4369 21.5235 28.8063 21.5602 29.1582 21.5602C30.073 21.5602 30.7768 21.3949 31.287 21.0827C31.7444 20.8072 32.1314 20.4216 32.3953 19.9441C32.624 19.5217 32.7823 19.0626 32.8351 18.5851C32.8879 18.2178 32.9055 17.8505 32.9231 17.5016V15.6835Z" fill="#C4AD6C"/>
<path d="M39.1953 9.69314V6.53349H42.0868V5.21252C42.0868 3.67732 42.5809 2.42775 43.5508 1.46379C44.5208 0.49983 46.0031 0 47.9795 0C48.4005 0 48.8397 0.0178503 49.2789 0.0535524C49.7181 0.0892546 50.139 0.107106 50.5416 0.142808V3.65947C49.956 3.58807 49.3704 3.55237 48.7665 3.55237C48.1077 3.55237 47.6319 3.69517 47.3573 3.99864C47.0828 4.30211 46.9364 4.80194 46.9364 5.51598V6.55135H50.2671V9.71099H46.9364V23.7241H42.0868V9.71099H39.1953V9.69314Z" fill="#C4AD6C"/>
<path d="M55.7587 6.64995V9.82366H55.8254C56.0254 9.29175 56.3087 8.79531 56.6586 8.35205C57.0085 7.9088 57.4084 7.51873 57.8584 7.19959C58.3083 6.88045 58.8082 6.63222 59.3081 6.45492C59.8247 6.27762 60.3746 6.18896 60.9245 6.18896C61.2578 6.18896 61.5744 6.24216 61.891 6.34854V10.7102C61.691 10.6747 61.4411 10.6215 61.1411 10.6038C60.8578 10.5683 60.5912 10.5506 60.3079 10.5506C59.6081 10.5329 58.9082 10.6747 58.2583 10.9939C57.7251 11.2598 57.2585 11.6676 56.9085 12.1641C56.5586 12.6782 56.3087 13.2633 56.1753 13.9016C56.0254 14.6108 55.9587 15.32 55.9587 16.047V23.7242H51.5762V6.66768H55.7587V6.64995Z" fill="#C4AD6C"/>
<path d="M63.4681 12.1024C63.5384 10.9638 63.8021 10.0272 64.2941 9.27423C64.7686 8.53964 65.3837 7.91524 66.1218 7.45613C66.8951 6.99701 67.7387 6.66645 68.6174 6.4828C69.5313 6.29915 70.4803 6.18896 71.4117 6.18896C72.2729 6.18896 73.134 6.24406 73.9951 6.37261C74.8211 6.4828 75.6295 6.7399 76.3852 7.1072C77.0882 7.45613 77.6857 7.97034 78.1427 8.63147C78.5996 9.27423 78.8281 10.1374 78.8281 11.2025V20.3849C78.8281 21.1562 78.8632 21.9091 78.9687 22.6804C79.0565 23.415 79.2147 23.9476 79.4256 24.3149H74.6981C74.6102 24.0394 74.5399 23.7639 74.4872 23.4701C74.4345 23.1763 74.3993 22.9008 74.3642 22.607C73.6436 23.3967 72.7474 23.966 71.7456 24.2782C70.7439 24.5904 69.707 24.7556 68.6701 24.7556C67.9144 24.7556 67.1412 24.6638 66.4206 24.4434C65.7528 24.2598 65.1377 23.9292 64.5929 23.4885C64.0657 23.0477 63.6439 22.4968 63.3627 21.854C63.0464 21.1194 62.9058 20.3114 62.9233 19.5033C62.9233 18.4933 63.0991 17.6669 63.433 17.0241C63.7493 16.3997 64.1887 15.8671 64.7335 15.4631C65.2959 15.0591 65.911 14.7653 66.5612 14.6C67.2466 14.4163 67.932 14.2511 68.635 14.1409C69.3379 14.0307 70.0233 13.9389 70.6912 13.8654C71.2887 13.8103 71.9038 13.7001 72.4837 13.5532C72.9407 13.443 73.3625 13.241 73.7315 12.9472C74.0479 12.6717 74.206 12.2309 74.1533 11.8086C74.1709 11.3862 74.083 10.9454 73.9073 10.5598C73.7491 10.2659 73.5206 10.0088 73.257 9.84353C72.9583 9.65989 72.6419 9.5497 72.308 9.4946C71.9214 9.43951 71.5347 9.40278 71.1481 9.40278C70.2342 9.40278 69.5137 9.60479 68.9865 10.0088C68.4592 10.4128 68.1605 11.0923 68.0726 12.0657L63.4681 12.1024ZM74.1884 15.6835C73.9776 15.8855 73.7315 16.0141 73.4503 16.1059C73.134 16.2161 72.8177 16.3079 72.5013 16.363C72.1674 16.4364 71.8159 16.4915 71.4469 16.5283C71.0778 16.565 70.7087 16.6385 70.3397 16.6936C69.9882 16.767 69.6543 16.8588 69.3204 16.969C69.004 17.0792 68.7053 17.2261 68.4417 17.4281C68.1956 17.6302 67.9847 17.8689 67.8441 18.1627C67.686 18.5117 67.5981 18.8973 67.6157 19.283C67.5981 19.6686 67.686 20.0359 67.8441 20.3849C67.9847 20.6787 68.1956 20.9174 68.4592 21.0827C68.7404 21.2664 69.0568 21.3949 69.3731 21.45C69.7246 21.5235 70.0937 21.5602 70.4451 21.5602C71.359 21.5602 72.062 21.3949 72.5716 21.0827C73.0286 20.8072 73.4152 20.4216 73.6788 19.9441C73.9073 19.5217 74.0654 19.0626 74.1181 18.5851C74.1709 18.2178 74.1884 17.8505 74.206 17.5016L74.1884 15.6835Z" fill="#C4AD6C"/>
</svg>
