<svg width="32" height="32" viewBox="0 0 32 32" fill="none" xmlns="http://www.w3.org/2000/svg">
<path d="M15.9945 5.06862C19.5554 5.06862 19.9734 5.08449 21.3808 5.14798C22.6824 5.20618 23.3861 5.42311 23.857 5.6083C24.4813 5.85169 24.9258 6.1374 25.3914 6.60301C25.857 7.06862 26.148 7.51306 26.3861 8.1374C26.566 8.6083 26.7882 9.312 26.8464 10.6136C26.9099 12.021 26.9258 12.439 26.9258 15.9998C26.9258 19.5607 26.9099 19.9787 26.8464 21.3861C26.7882 22.6876 26.5713 23.3913 26.3861 23.8622C26.1427 24.4866 25.857 24.931 25.3914 25.3966C24.9258 25.8622 24.4813 26.1532 23.857 26.3913C23.3861 26.5712 22.6824 26.7935 21.3808 26.8517C19.9734 26.9152 19.5554 26.931 15.9945 26.931C12.4337 26.931 12.0157 26.9152 10.6083 26.8517C9.30672 26.7935 8.60301 26.5765 8.13211 26.3913C7.50777 26.148 7.06333 25.8622 6.59772 25.3966C6.13211 24.931 5.84111 24.4866 5.60301 23.8622C5.42312 23.3913 5.2009 22.6876 5.14269 21.3861C5.0792 19.9787 5.06333 19.5607 5.06333 15.9998C5.06333 12.439 5.0792 12.021 5.14269 10.6136C5.2009 9.312 5.41783 8.6083 5.60301 8.1374C5.8464 7.51306 6.13211 7.06862 6.59772 6.60301C7.06333 6.1374 7.50777 5.84639 8.13211 5.6083C8.60301 5.42841 9.30672 5.20618 10.6083 5.14798C12.0157 5.0792 12.439 5.06862 15.9945 5.06862ZM15.9945 2.6665C12.3755 2.6665 11.9205 2.68238 10.4972 2.74587C9.0792 2.80936 8.11095 3.03687 7.26439 3.36492C6.38608 3.70354 5.64534 4.16386 4.9046 4.9046C4.16386 5.64534 3.70883 6.39137 3.36492 7.26438C3.03687 8.11094 2.80936 9.0792 2.74587 10.5025C2.68238 11.9205 2.6665 12.3755 2.6665 15.9945C2.6665 19.6136 2.68238 20.0686 2.74587 21.4919C2.80936 22.9099 3.03687 23.8781 3.36492 24.73C3.70354 25.6083 4.16386 26.349 4.9046 27.0898C5.64534 27.8305 6.39137 28.2855 7.26439 28.6294C8.11095 28.9575 9.0792 29.185 10.5025 29.2485C11.9258 29.312 12.3755 29.3278 15.9998 29.3278C19.6242 29.3278 20.0739 29.312 21.4972 29.2485C22.9152 29.185 23.8834 28.9575 24.7353 28.6294C25.6136 28.2908 26.3543 27.8305 27.0951 27.0898C27.8358 26.349 28.2908 25.603 28.6348 24.73C28.9628 23.8834 29.1903 22.9152 29.2538 21.4919C29.3173 20.0686 29.3332 19.6189 29.3332 15.9945C29.3332 12.3702 29.3173 11.9205 29.2538 10.4972C29.1903 9.0792 28.9628 8.11094 28.6348 7.25909C28.2961 6.38079 27.8358 5.64005 27.0951 4.89931C26.3543 4.15857 25.6083 3.70354 24.7353 3.35962C23.8887 3.03158 22.9205 2.80407 21.4972 2.74058C20.0686 2.68238 19.6136 2.6665 15.9945 2.6665Z"/>
<path d="M15.9945 9.15332C12.2167 9.15332 9.14795 12.2168 9.14795 15.9999C9.14795 19.7829 12.2114 22.8464 15.9945 22.8464C19.7776 22.8464 22.8411 19.7829 22.8411 15.9999C22.8411 12.2168 19.7776 9.15332 15.9945 9.15332ZM15.9945 20.439C13.5395 20.439 11.5501 18.4496 11.5501 15.9946C11.5501 13.5396 13.5395 11.5501 15.9945 11.5501C18.4495 11.5501 20.4389 13.5396 20.4389 15.9946C20.4389 18.4496 18.4495 20.439 15.9945 20.439Z"/>
<path d="M23.1111 10.476C23.9935 10.476 24.7089 9.76064 24.7089 8.87816C24.7089 7.99567 23.9935 7.28027 23.1111 7.28027C22.2286 7.28027 21.5132 7.99567 21.5132 8.87816C21.5132 9.76064 22.2286 10.476 23.1111 10.476Z"/>
</svg>
