<svg width="32" height="32" viewBox="0 0 32 32" fill="none" xmlns="http://www.w3.org/2000/svg">
<path d="M4.36412 11.9691H8.96564V28H4.36412V11.9691ZM6.66667 4C8.13744 4 9.33333 5.29531 9.33333 6.88835C9.33333 8.48526 8.13744 9.7767 6.66667 9.7767C5.19232 9.7767 4 8.48526 4 6.88835C4 5.29531 5.19232 4 6.66667 4Z" fill="white"/>
<path d="M12 12.3915H16.9219V14.5224H16.9935C17.6784 13.2951 19.3549 12 21.8477 12C27.0403 12 28 15.2339 28 19.4353V27.9962H22.8751V20.4104C22.8751 18.5995 22.8392 16.2692 20.2071 16.2692C17.5351 16.2692 17.1289 18.2419 17.1289 20.2786V28H12V12.3915Z" fill="white"/>
</svg>
