<svg width="24" height="24" viewBox="0 0 24 24" fill="none" xmlns="http://www.w3.org/2000/svg">
<path fill-rule="evenodd" clip-rule="evenodd" d="M21.555 17.2602L21.6127 17.3469C21.8455 17.6972 21.9471 18.1167 21.9471 18.459C21.9471 18.9989 21.7345 19.4581 21.5338 19.7936L21.4674 19.9047L21.3305 20.042C19.868 21.5658 18.422 21.9112 17.8765 21.9894L17.8023 22H17.305C15.9835 22 11.9632 21.5278 7.21635 16.7669C5.50067 15.0461 4.21251 13.4879 3.35301 11.9405C2.42585 10.3668 2.00001 8.81105 2.00001 7.23513C2.00001 7.22969 2.00001 7.22404 2 7.21817C1.99988 6.88316 1.99948 5.84323 2.38601 4.84765C2.58671 4.31357 2.85314 3.91292 3.05869 3.60382C3.06362 3.5964 3.06851 3.58904 3.07337 3.58174L3.1138 3.52092L3.61975 2.95003L3.65879 2.91403C3.75585 2.82455 3.90943 2.6887 4.06442 2.56393C4.1414 2.50196 4.22946 2.43404 4.31744 2.3735C4.38059 2.33005 4.5309 2.22791 4.71095 2.16493L4.72473 2.1601C4.72626 2.15959 4.73002 2.15821 4.73577 2.15593C4.80118 2.13 5.12908 2 5.48081 2C6.01741 2 6.49802 2.20942 6.8526 2.47614L6.9201 2.52691L9.7832 5.50487C10.2542 5.90307 10.4396 6.4771 10.4396 6.97041C10.4396 7.48998 10.2425 8.03591 9.8932 8.47389L9.85686 8.51945L8.68177 9.69802C9.19256 10.6205 9.81716 11.7328 11.0225 12.9437C12.2107 14.0879 13.3109 14.763 14.2 15.2645L15.3982 14.0628C15.8364 13.6233 16.4366 13.4357 16.9355 13.4357C17.4639 13.4357 17.8906 13.6842 18.1012 13.8251L18.1879 13.883L21.3759 17.0805L21.4287 17.1334L21.555 17.2602ZM13.8738 16.2884C12.9237 15.759 11.6568 15.0178 10.2844 13.6942C8.94903 12.3549 8.26331 11.1158 7.74101 10.172C7.7265 10.1458 7.71211 10.1198 7.69784 10.0941L7.38112 9.51168L9.07029 7.8175C9.28143 7.55279 9.387 7.23513 9.387 6.97041C9.387 6.7057 9.28143 6.44098 9.07029 6.28216L6.21982 3.31735C6.00868 3.15852 5.74475 3.05263 5.48081 3.05263C5.35551 3.05263 5.26325 3.08578 5.15174 3.12585C5.12233 3.13642 5.09157 3.14747 5.05852 3.15852C4.91418 3.20901 4.5409 3.53251 4.3723 3.68795L3.95001 4.16443C3.73886 4.48209 3.52772 4.79975 3.36936 5.22329C3.05264 6.03509 3.05264 6.91747 3.05264 7.23513C3.05264 8.61165 3.42215 9.98817 4.26673 11.4176C5.05852 12.8471 6.27261 14.3295 7.96177 16.0237C12.5014 20.5768 16.2492 20.9474 17.305 20.9474H17.7273C18.0968 20.8944 19.3108 20.6297 20.5777 19.3061L20.6305 19.2532C20.7889 18.9885 20.8944 18.7238 20.8944 18.459C20.8944 18.3002 20.8416 18.0884 20.7361 17.9296L17.5161 14.7001C17.3577 14.5942 17.1466 14.4883 16.9355 14.4883C16.6715 14.4883 16.3548 14.5942 16.1437 14.806L14.4545 16.5002L13.8738 16.2884Z" fill="#21295E"/>
</svg>
