<svg width="32" height="33" viewBox="0 0 32 33" fill="none" xmlns="http://www.w3.org/2000/svg">
<path d="M21.0748 9.10018C21.5808 9.09414 21.9882 8.68153 21.9821 8.17554C21.9761 7.66956 21.5635 7.26219 21.0575 7.26823C20.5515 7.27428 20.1441 7.68689 20.1502 8.19287C20.1562 8.69886 20.5688 9.10622 21.0748 9.10018Z" fill="#C4AD6C"/>
<path fill-rule="evenodd" clip-rule="evenodd" d="M15.2148 6.24823C15.2153 6.24814 15.2159 6.24805 15.2164 6.24797L21.7363 5.17052C22.587 5.03293 23.4143 5.56013 23.6375 6.39947C23.6375 6.3996 23.6375 6.39934 23.6375 6.39947L25.3871 12.925C25.3874 12.9259 25.3876 12.9268 25.3879 12.9276C25.5168 13.3945 25.4316 13.8931 25.1703 14.2907L16.5868 27.3461C16.5866 27.3465 16.5864 27.3468 16.5861 27.3472C16.0765 28.128 15.0299 28.3416 14.2522 27.8303L5.97286 22.387C5.97251 22.3867 5.97215 22.3865 5.97179 22.3863C5.19096 21.8766 4.97737 20.8301 5.48871 20.0523L14.079 6.9865C14.3354 6.59651 14.7443 6.32385 15.2148 6.24823ZM15.3939 7.35958C15.2434 7.38362 15.1072 7.47172 15.0196 7.60492L6.42933 20.6707C6.2579 20.9315 6.33174 21.2772 6.58744 21.4438L6.58936 21.4451L14.8706 26.8897C15.1313 27.0611 15.4771 26.9873 15.6437 26.7316L15.6449 26.7296L24.2296 13.6723C24.3176 13.5384 24.3433 13.3731 24.3025 13.2265L24.3012 13.2215L22.5496 6.68886C22.4768 6.41481 22.2026 6.23584 21.9168 6.28165C21.9165 6.2817 21.9171 6.28161 21.9168 6.28165L15.3969 7.35909L15.3939 7.35958Z" fill="#C4AD6C"/>
<path fill-rule="evenodd" clip-rule="evenodd" d="M23.1262 4.68264C22.7884 4.88177 22.3969 5.25344 22.0618 5.76313C21.7265 6.27312 21.5404 6.77907 21.4915 7.16749C21.4375 7.59604 21.5597 7.69586 21.5599 7.69603L20.9415 8.63665C20.3843 8.27033 20.3049 7.57982 20.3746 7.02672C20.4494 6.43349 20.7124 5.76647 21.1212 5.14471C21.5302 4.52265 22.0393 4.01667 22.5545 3.71291C23.0338 3.43037 23.7011 3.22777 24.2576 3.59672C24.811 3.96358 24.8907 4.65241 24.8215 5.20527C24.7473 5.79834 24.4852 6.46534 24.0762 7.08748C23.8949 7.36314 23.6976 7.61236 23.4873 7.83337L22.6718 7.05735C22.8333 6.8877 22.9892 6.69172 23.1355 6.46907C23.4706 5.95945 23.6559 5.45385 23.7045 5.06545C23.7582 4.63684 23.6362 4.53534 23.6356 4.53498L23.6356 4.53496C23.6345 4.53418 23.6084 4.51562 23.5221 4.52683C23.4298 4.53882 23.2951 4.58307 23.1262 4.68264Z" fill="#C4AD6C"/>
</svg>
