<svg width="32" height="32" viewBox="0 0 32 32" fill="none" xmlns="http://www.w3.org/2000/svg">
<path fill-rule="evenodd" clip-rule="evenodd" d="M13.2099 6.74058C17.0442 6.55836 21.0529 6.74839 24.7414 6.92279C27.3496 7.04774 28.5288 8.13841 28.9323 10.515C29.1015 11.5146 29.1666 13.04 29.2186 14.1332C29.341 16.7467 29.3071 19.4695 28.9323 21.5779C28.5132 23.9389 27.3809 25.0426 24.7153 25.1702C19.8477 25.4018 14.6884 25.4669 9.51355 25.2743C6.92612 25.178 4.52351 25.1728 3.5786 23.4261C2.78207 21.9502 2.66753 19.6022 2.66753 17.309C2.66753 15.0703 2.63369 12.4543 2.95387 10.5671C3.30268 8.52106 4.19813 7.22214 6.41592 7.00088C8.5296 6.79003 10.7682 6.85771 13.2099 6.74058ZM13.2099 19.4695C15.563 18.3163 17.9761 16.9992 20.3683 15.7992C18.0333 14.4899 15.5865 13.2924 13.2099 12.0248C13.2099 14.5055 13.2099 16.9888 13.2099 19.4695Z"/>
</svg>
