<svg width="96" height="96" viewBox="0 0 96 96" fill="none" xmlns="http://www.w3.org/2000/svg">
<path d="M60.6874 29.5009C61.9524 29.4858 62.9708 28.4543 62.9557 27.1893C62.9406 25.9244 61.9091 24.906 60.6441 24.9211C59.3791 24.9362 58.3607 25.9677 58.3758 27.2327C58.3909 28.4976 59.4225 29.516 60.6874 29.5009Z" fill="#C4AD6C"/>
<path fill-rule="evenodd" clip-rule="evenodd" d="M46.0373 22.3716C46.0386 22.3713 46.04 22.3711 46.0414 22.3709L62.341 19.6773C64.4679 19.3333 66.5362 20.6513 67.0941 22.7497C67.0942 22.75 67.094 22.7493 67.0941 22.7497L71.4682 39.0634C71.4688 39.0656 71.4694 39.0679 71.47 39.0701C71.7923 40.2373 71.5794 41.4838 70.926 42.4777L49.4674 75.1163C49.4668 75.1172 49.4663 75.118 49.4657 75.1189C48.1916 77.071 45.5752 77.605 43.6308 76.3267L22.9325 62.7184C22.9316 62.7178 22.9307 62.7172 22.9299 62.7166C20.9778 61.4425 20.4438 58.8262 21.7221 56.8818L43.1978 24.2172C43.8388 23.2423 44.8611 22.5606 46.0373 22.3716ZM46.4852 25.1499C46.1088 25.21 45.7683 25.4303 45.5493 25.7633L24.0737 58.4278C23.6451 59.0797 23.8297 59.944 24.469 60.3606L24.4738 60.3637L45.1768 73.9751C45.8287 74.4037 46.693 74.2191 47.1095 73.5799L47.1127 73.5751L68.5745 40.9316C68.7944 40.5971 68.8586 40.1836 68.7567 39.8171L68.7533 39.8047L64.3744 23.4731C64.1924 22.788 63.5069 22.3406 62.7923 22.4551C62.7917 22.4552 62.793 22.455 62.7923 22.4551L46.4927 25.1487L46.4852 25.1499Z" fill="#C4AD6C"/>
<path fill-rule="evenodd" clip-rule="evenodd" d="M65.8152 18.4566C64.9707 18.9544 63.9919 19.8836 63.1542 21.1578C62.3159 22.4328 61.8507 23.6977 61.7283 24.6687C61.5933 25.7401 61.8988 25.9897 61.8995 25.9901L60.3534 28.3416C58.9605 27.4258 58.7619 25.6995 58.9362 24.3168C59.1231 22.8337 59.7807 21.1662 60.8026 19.6118C61.8251 18.0566 63.0978 16.7917 64.386 16.0323C65.5841 15.3259 67.2523 14.8194 68.6437 15.7418C70.0272 16.6589 70.2263 18.381 70.0533 19.7632C69.8678 21.2459 69.2126 22.9134 68.19 24.4687C67.737 25.1578 67.2437 25.7809 66.7179 26.3334L64.6792 24.3934C65.0828 23.9693 65.4725 23.4793 65.8385 22.9227C66.6761 21.6486 67.1394 20.3846 67.2609 19.4136C67.395 18.3421 67.0901 18.0883 67.0887 18.0875L67.0886 18.0874C67.0859 18.0855 67.0206 18.039 66.8048 18.0671C66.574 18.0971 66.2374 18.2077 65.8152 18.4566Z" fill="#C4AD6C"/>
</svg>
